:SAMPLES-PER-SECOND 30
:FRAME-RANGE 1-564
:FULLY-SPECIFIED
:DEGREES
265
root  14.2607 40.4587 1.86339 167.63 -56.8972 -175.933
RightUpLeg  8.10478 -7.56766 0.914773
RightLeg  18.6288 -9.14447 -3.62508
RightFoot  -11.0516 -0.0957615 8.12768
RightToes  -1.74624e-010 0 -3.6325e-017
Spine  14.6856 6.85814 12.604
Spine1  -3.28565 10.7321 -14.2598
HEad  7.14404 -11.2088 0.0804286
LeftShoulder1  3.02027 -5.02468 -29.3825
LeftArm  0.218983 -20.6222 -23.5801
LeftForeArm  -31.712 -32.4481 -8.67771
LeftHand  -1.08544 -0.642149 20.893
RightShoulder  23.0816 30.3524 58.9849
RightArm  -13.9614 27.5697 -1.25728
RightForeArm  -9.22943 10.3153 11.2767
RightHand  1.4905 18.406 6.71883
LeftUpLeg  9.05385 3.74537 2.50728
LeftLeg  3.55991 -19.216 1.88448
LeftFoot  -5.86612 -0.255011 6.06731
LeftToes  -6.43926e-010 8.38805e-011 -3.16407e-011
266
root  14.0909 40.5012 1.64373 167.586 -55.0806 -175.875
RightUpLeg  6.94013 -8.20035 -0.233082
RightLeg  19.2022 -9.88085 -4.00949
RightFoot  -11.0243 -0.0971219 7.98643
RightToes  -1.74624e-010 0 -3.6325e-017
Spine  14.2727 6.7711 12.1412
Spine1  -2.94538 10.4778 -13.5675
HEad  7.92552 -13.2815 0.332324
LeftShoulder1  3.03415 -4.96316 -29.8109
LeftArm  3.8366 -17.6456 -23.8996
LeftForeArm  -33.9628 -31.4859 -8.49186
LeftHand  -0.935479 -0.741914 17.7799
RightShoulder  22.5702 28.7087 60.5266
RightArm  -15.7072 26.3259 -1.49155
RightForeArm  -3.66476 8.81399 11.2918
RightHand  0.908236 18.163 3.95524
LeftUpLeg  10.505 4.64686 3.39438
LeftLeg  2.0435 -18.5605 1.83838
LeftFoot  -5.81858 -0.250726 5.92061
LeftToes  -6.43926e-010 8.38805e-011 -3.16407e-011
267
root  13.9372 40.5371 1.39807 167.387 -52.9598 -175.573
RightUpLeg  5.97378 -9.08322 -1.42504
RightLeg  18.5018 -9.92662 -3.88784
RightFoot  -10.5051 -0.13027 8.04408
RightToes  -1.74624e-010 0 -3.6325e-017
Spine  13.8509 6.63899 11.6582
Spine1  -2.62416 10.1319 -12.8039
HEad  8.55519 -15.1162 0.583327
LeftShoulder1  3.05262 -4.93895 -30.1373
LeftArm  8.76864 -14.6792 -24.6167
LeftForeArm  -34.2848 -30.2697 -8.17375
LeftHand  -0.984467 -0.976318 18.0262
RightShoulder  21.7337 26.7874 61.8755
RightArm  -16.7865 24.8881 -1.41675
RightForeArm  -0.319854 6.75271 11.4376
RightHand  0.523217 17.9325 2.10102
LeftUpLeg  12.2541 5.78214 4.58527
LeftLeg  -0.0207027 -17.7517 1.84061
LeftFoot  -5.41451 -0.286219 6.15393
LeftToes  -6.43926e-010 8.38805e-011 -3.16407e-011
268
root  13.7751 40.5543 1.14907 167.771 -50.2761 -175.655
RightUpLeg  4.4955 -8.69005 -2.64054
RightLeg  17.3901 -9.83487 -3.60312
RightFoot  -9.97788 -0.158321 7.58953
RightToes  -1.74624e-010 0 -3.6325e-017
Spine  13.4987 6.442 11.2957
Spine1  -2.65572 9.78982 -12.5348
HEad  9.12057 -16.47 0.735929
LeftShoulder1  3.06711 -4.91271 -30.4261
LeftArm  14.7099 -11.6668 -25.099
LeftForeArm  -35.6817 -29.8323 -8.10519
LeftHand  -0.966546 -1.39744 16.6431
RightShoulder  20.8108 24.7237 63.4174
RightArm  -15.6176 22.9058 -1.73751
RightForeArm  0.515769 5.07852 11.7841
RightHand  0.408876 17.5808 1.56996
LeftUpLeg  13.9133 6.29154 5.10062
LeftLeg  -2.2557 -15.5059 2.22418
LeftFoot  -5.30827 -0.252352 5.39246
LeftToes  -6.43926e-010 8.38805e-011 -3.16407e-011
269
root  13.6506 40.5297 0.873803 167.68 -47.6139 -175.316
RightUpLeg  3.35155 -8.08554 -3.54853
RightLeg  15.317 -9.76077 -3.02892
RightFoot  -8.83538 -0.230369 7.77093
RightToes  -1.74624e-010 0 -3.6325e-017
Spine  13.5586 6.02626 10.9177
Spine1  -2.8315 9.19753 -11.9765
HEad  8.88492 -17.6174 0.827917
LeftShoulder1  3.10261 -4.92729 -30.7884
LeftArm  21.2841 -9.15695 -25.8812
LeftForeArm  -36.5718 -29.5057 -8.04861
LeftHand  -0.93915 -0.999567 17.1523
RightShoulder  19.6842 22.5958 64.7085
RightArm  -14.5848 20.7648 -2.11246
RightForeArm  1.54042 3.2782 11.9966
RightHand  0.470958 17.425 1.89861
LeftUpLeg  15.2031 6.91361 6.06411
LeftLeg  -3.26273 -13.9635 2.20458
LeftFoot  -5.56062 -0.232721 5.26998
LeftToes  -6.43926e-010 8.38805e-011 -3.16407e-011
270
root  13.5368 40.4949 0.557658 167.82 -44.4095 -175.155
RightUpLeg  2.00029 -6.60951 -4.22657
RightLeg  12.7487 -10.2309 -2.56634
RightFoot  -6.788 -0.363258 7.96084
RightToes  -1.74624e-010 0 -3.6325e-017
Spine  13.2343 5.63855 10.5121
Spine1  -2.30627 8.66953 -11.2562
HEad  7.63091 -17.5947 0.904846
LeftShoulder1  3.15016 -4.94327 -31.2862
LeftArm  27.8141 -6.9824 -26.7763
LeftForeArm  -36.266 -29.5055 -8.03852
LeftHand  -0.911351 -2.05176 14.3803
RightShoulder  18.6927 20.8234 65.7653
RightArm  -13.7658 18.6841 -2.41732
RightForeArm  1.99546 1.43263 11.9916
RightHand  0.126455 16.5758 0.189501
LeftUpLeg  16.2434 7.47203 6.87229
LeftLeg  -3.61781 -11.4012 1.96921
LeftFoot  -6.52316 -0.136134 4.16858
LeftToes  -6.43926e-010 8.38805e-011 -3.16407e-011
271
root  13.4352 40.4392 0.18749 168.024 -41.0715 -175.071
RightUpLeg  0.980413 -5.1285 -4.82293
RightLeg  9.05162 -10.4001 -2.13262
RightFoot  -3.8687 -0.591635 8.63918
RightToes  -1.74624e-010 0 -3.6325e-017
Spine  13.1377 5.01787 9.90482
Spine1  -2.08892 7.87129 -10.5376
HEad  6.25207 -16.6968 0.799311
LeftShoulder1  3.21021 -5.01842 -31.6647
LeftArm  32.8235 -4.18531 -28.0149
LeftForeArm  -34.269 -30.0592 -8.1172
LeftHand  -0.943468 -2.2579 14.4905
RightShoulder  17.5706 18.8042 67.165
RightArm  -11.7824 16.5592 -2.68752
RightForeArm  1.15896 1.22952 12.2975
RightHand  0.14872 16.4497 0.311813
LeftUpLeg  17.2579 8.14289 7.78837
LeftLeg  -3.64889 -9.06523 1.46918
LeftFoot  -7.40731 -0.0843543 3.75401
LeftToes  -6.43926e-010 8.38805e-011 -3.16407e-011
272
root  13.339 40.3491 -0.27038 168.348 -37.3637 -175.066
RightUpLeg  0.0934072 -4.37488 -5.1302
RightLeg  4.56383 -9.75103 -1.88612
RightFoot  -0.739659 -0.887769 9.49294
RightToes  -1.74624e-010 0 -3.6325e-017
Spine  12.7408 4.34908 8.97006
Spine1  -1.72988 6.92607 -9.56199
HEad  5.29763 -14.9511 0.536326
LeftShoulder1  3.3004 -5.13766 -32.191
LeftArm  36.3312 -1.20591 -29.2378
LeftForeArm  -33.3731 -30.8273 -8.29143
LeftHand  -0.909065 -2.1968 14.0817
RightShoulder  16.1655 16.5473 68.4799
RightArm  -8.77164 14.5923 -2.47612
RightForeArm  -0.00668429 2.14586 12.8134
RightHand  0.0672511 16.3259 -0.11538
LeftUpLeg  18.2499 8.73561 8.61159
LeftLeg  -3.30224 -6.26846 0.952478
LeftFoot  -8.50593 -0.0327561 3.39145
LeftToes  -6.43926e-010 8.38805e-011 -3.16407e-011
273
root  13.2176 40.2286 -0.804299 168.552 -33.5354 -175.028
RightUpLeg  -0.374786 -3.84793 -5.12613
RightLeg  -0.392426 -8.88599 -1.66021
RightFoot  1.73394 -1.1018 9.69607
RightToes  -1.74624e-010 0 -3.6325e-017
Spine  12.936 3.39598 8.06021
Spine1  -2.05177 5.67563 -8.54263
HEad  4.93899 -12.4518 -0.0837117
LeftShoulder1  3.29715 -4.96143 -32.9458
LeftArm  38.2849 1.68502 -30.9664
LeftForeArm  -32.5385 -31.07 -8.32722
LeftHand  -0.890243 -1.4794 15.1782
RightShoulder  14.6795 14.4401 69.2966
RightArm  -3.64488 12.0864 -1.77083
RightForeArm  -1.76709 4.34549 13.2463
RightHand  0.301287 16.6631 1.10015
LeftUpLeg  19.3006 8.91905 9.02581
LeftLeg  -2.58316 -2.73677 0.904973
LeftFoot  -9.82142 0.023386 2.68951
LeftToes  -6.43926e-010 8.38805e-011 -3.16407e-011
274
root  13.1516 40.069 -1.42628 169.31 -29.2426 -175.331
RightUpLeg  -1.68922 -2.88125 -4.80448
RightLeg  -4.20307 -8.03624 -1.87535
RightFoot  2.1257 -1.09744 9.39858
RightToes  -1.74624e-010 0 -3.6325e-017
Spine  12.3719 3.06872 6.71078
Spine1  -1.85128 4.9887 -7.27597
HEad  4.74969 -10.0146 -0.95183
LeftShoulder1  3.38559 -5.07186 -33.4734
LeftArm  40.4282 2.998 -33.6357
LeftForeArm  -36.0616 -30.4399 -8.27966
LeftHand  -0.226424 4.25929 22.7366
RightShoulder  12.9008 12.1061 69.8575
RightArm  6.37942 9.29434 -1.50295
RightForeArm  -7.20442 8.73676 13.1278
RightHand  0.397114 16.8035 1.58674
LeftUpLeg  20.4365 9.05332 9.07435
LeftLeg  -2.41456 1.33774 0.728127
LeftFoot  -10.9196 0.0586757 1.88707
LeftToes  -6.43926e-010 8.38805e-011 -3.16407e-011
